# xmcd
#
# Track frame offsets: 
#        193
#        46265
#        82750
#        100525
#        119810
#        137750
#        162695
#
# Disc length: 2679 seconds
#
# Revision: 2
# Processed by: cddbd v1.5.2PL0 Copyright (c) Steve Scherf et al.
# Submitted via: ExactAudioCopy v1.0b3
#
DISCID=560a7507
DTITLE=Albert King - IL Grande Rock
DYEAR=1992
DGENRE=
TTITLE0=Blues power
TTITLE1=Why you so mean to me
TTITLE2=Please love me
TTITLE3=Can't you see what you're doing to me
TTITLE4=Breaking up somebody's home
TTITLE5=I get evil
TTITLE6=Call it stormy monday
EXTD=
EXTT0=
EXTT1=
EXTT2=
EXTT3=
EXTT4=
EXTT5=
EXTT6=
PLAYORDER=
